<svg width="400" height="400" viewBox="0 0 400 400" fill="none" xmlns="http://www.w3.org/2000/svg">
<path d="M201.307 224.091C203.963 223.744 207.903 224.391 210.433 225.144C222.443 228.717 228.16 236.732 236.64 244.785C242.793 250.63 254.605 258.248 262.97 260.285C263.363 263.588 263.323 267.818 263.305 271.205C263.19 294.69 256.693 320.153 245.145 340.585C237.95 353.32 229.584 367.689 212.475 370.938C198.223 373.644 186.232 368.835 176.689 360.975C143.748 333.843 142.439 277.695 167.86 245.192C175.714 235.15 188.34 225.635 201.307 224.091ZM204.19 354.798C215.342 353.853 226.103 346.988 233.234 338.563C243.744 326.218 248.474 310.005 247.009 293.913C245.883 281.55 240.7 269.93 231.148 261.753C224.671 256.21 212.757 251.628 204.162 253.348C191.258 254.895 181.01 261.435 173.063 271.538C163.448 283.953 159.049 299.623 160.798 315.228C162.282 327.59 167.427 339.203 177.314 347.125C184.752 353.085 194.686 356.123 204.19 354.798Z" fill="#101010"/>
<path d="M205.632 260.855C210.963 260.343 217.605 262.888 221.663 266.35C245.799 286.955 232.715 342.43 199.563 345.608C194.084 345.885 187.663 343.675 183.631 340.02C165.191 323.313 168.938 290.215 184.088 272.58C189.896 265.818 196.88 261.593 205.632 260.855ZM201.907 328.62C216.442 326.183 223.161 305.935 220.945 292.978C219.781 286.17 214.697 279.491 207.096 279.293C200.289 279.115 196.947 283.703 193.04 289.613C186.433 299.608 183.328 318.95 194.646 326.99C196.432 328.258 199.706 328.965 201.907 328.62Z" fill="#101010"/>
<path d="M207.688 287.025C218.942 286.215 215.012 315.245 200.624 319.545C188.913 319.665 193.831 290.982 207.688 287.025Z" fill="#101010"/>
<path d="M186.468 32.3948C205.038 30.2081 226.41 38.1098 242.343 46.8841C244.133 47.8698 249.596 48.8988 251.762 49.4786C256.707 50.7873 261.41 52.8776 265.695 55.6701C272.117 59.8518 279.107 66.9646 283.055 73.5068C287.312 80.5608 288.97 83.9293 294.392 90.3443C300.505 97.5778 303.327 98.1658 310.16 103.384C323.285 113.408 332.325 127.854 335.607 144.039C342.56 177.017 326.76 213.436 308.807 240.344C308.465 240.856 308.284 240.912 308.105 240.823C307.926 240.735 307.267 237.317 307.185 235.883C306.517 224.576 311.335 217.876 314.702 207.629C316.37 202.515 317.752 197.313 318.845 192.047C321.415 179.862 322.177 171.708 320.772 159.451C318.612 140.911 310.257 123.642 297.06 110.443C293.347 106.801 290.255 104.832 286.295 101.672C281.127 97.5501 278.175 95.7086 272.405 92.6936C269.645 91.2383 266.972 89.6208 264.402 87.8496C258.55 83.7916 254.365 79.5653 248.919 75.2368C231.29 58.8526 209.502 46.2171 184.428 51.8603C168.276 55.4953 156.788 66.0826 147.362 79.1223C143.349 84.6726 137.255 90.8731 132.502 95.8633C121.646 106.568 107.43 112.542 99.7301 126.485C88.9769 144.079 86.5829 164.31 91.1669 184.209C86.5684 191.168 85.1602 192.205 84 200.5C62.9988 168.951 67.7216 129.49 97.0064 104.314C102.408 99.3668 109.955 96.3683 114.619 90.6728C121.078 82.9356 126.126 74.2806 131.402 65.7431C144.069 45.2478 163.045 34.8163 186.468 32.3948Z" fill="#101010"/>
<path d="M202.923 92.8525C204.686 92.5797 209.086 92.7655 210.864 93.0462C228.569 95.8435 238.465 107.202 249.513 119.593C254.188 124.833 258.943 130.002 263.775 135.098C269.068 140.63 276.578 146.359 281.033 151.975C288.42 161.29 291.86 177.977 290.983 189.751C290.205 200.207 289.23 208.815 293.483 218.979C294.508 221.464 295.965 224.651 296.833 227.182C308.43 261.055 291.893 303.64 263.988 324.668C263.755 314.038 267.113 307.265 273.088 298.755C275.013 296.018 277.855 292.69 279.383 289.688C284.533 279.562 288.683 265.473 290.063 254.283C291.028 246.48 289.175 234.51 286.03 227.403C283.798 222.352 282.048 219.668 280.648 213.932C279.713 210.109 279.25 206.185 279.268 202.249C279.3 199.738 279.555 196.861 279.415 194.391C278.643 180.885 271.003 167.182 261.103 158.213C255.743 153.258 254.12 153.117 247.618 150.346C244.35 148.922 241.185 147.274 238.144 145.413C225.653 137.866 219.843 128.757 204.588 124.365C183.844 118.393 166.957 127.905 155.814 145.244C153.574 148.73 151.838 152.27 149.145 155.412C143.082 163.24 133.648 166.086 127.615 173.868C123.814 178.013 122.046 182.844 119.822 187.807C114.157 200.451 111.577 213.085 110.974 226.87C110.713 232.836 108.457 240.641 106.747 246.48C85.3748 221.801 90.6528 192.001 112.07 169.417C116.852 164.374 121.794 160.559 125.575 154.602C128.39 150.167 129.191 146.829 131.087 142.049C133.335 136.375 136.49 131.104 140.428 126.442C147.048 118.528 155.536 112.388 165.125 108.579C168.461 107.227 173.633 105.683 176.7 104.029C186.219 98.8955 191.449 93.9055 202.923 92.8525Z" fill="#101010"/>
<path d="M190.129 130.347C197.998 128.825 211.275 134.697 216.912 140.276C224.37 147.658 228.242 150.117 238.256 153.496C257.855 160.108 269.815 179.119 271.582 199.163C272.025 204.195 272.337 209.747 273.67 214.65C274.8 218.882 276.737 222.336 278.435 226.354C281.582 233.972 283.22 242.13 283.25 250.372C283.27 263.672 278.682 280.977 269.117 290.59C269.162 290.335 269.207 290.08 269.25 289.825C274.665 257.102 267.075 220.461 247.658 193.366C227.868 165.748 194.863 151.126 164.783 173.001C159.27 177.57 153.65 182.947 149.906 189.132C147.733 192.722 146.042 197.152 143.529 200.753C139.434 206.621 134.886 213.636 131.238 219.701C127.634 225.694 124.317 237.246 124.272 244.204C124.233 250.305 126.6 260.767 129.203 266.385C133.827 276.365 138.006 283.63 141.075 294.467C143.41 302.75 144.889 311.25 145.487 319.832C145.548 320.64 145.825 322.717 145.515 323.272C143.677 323.262 138.151 317.037 136.8 315.56C124.238 301.815 116.376 284.427 114.352 265.917C113.322 256.807 113.705 247.595 115.486 238.602C116.219 234.999 117.669 230.664 118.15 227.201C120.688 208.92 125.211 189.499 137.923 175.423C141.906 171.013 147.511 167.718 151.553 163.149C154.646 159.653 158.069 156.176 160.788 152.323C166.049 144.645 170.883 137.426 179.622 133.268C183.318 131.51 185.995 130.804 190.129 130.347Z" fill="#101010"/>
<path d="M193.35 59.3546C201.689 58.3471 212.507 61.7443 219.918 65.3138C227.326 68.8816 233.036 72.8453 239.525 77.7516C242.86 80.2731 246.409 82.4248 249.718 85.1538C253.315 88.1196 256.797 91.2123 260.425 94.1111C265.692 98.3211 271.725 100.64 277.405 104.146C291.64 112.929 304.755 128.235 310.162 144.209C318.695 169.407 313.32 194.233 302.192 217.455C295.547 204.216 299.037 194.047 298.522 180.588C298.03 167.675 290.497 151.755 282.412 141.946C276.682 134.998 269.125 128.24 262.905 121.607C257.335 115.962 249.859 107.603 244.049 102.657C236.817 95.3293 223.718 87.3913 213.58 85.1963C203.303 82.8071 187.115 87.6558 178.24 93.0471C170.424 98.8296 161.239 102.261 152.918 106.539C137.74 114.34 128.295 129.015 122.25 144.249C119.255 151.797 105.561 169.137 98.6721 173.486L98.4264 173.638C91.7374 148.001 104.31 125.49 124.785 110.842C131.188 106.262 137.487 103.223 142.776 97.2871C147.56 91.9181 151.401 86.2508 155.846 80.6376C166.305 68.1906 176.864 60.7511 193.35 59.3546Z" fill="#101010"/>
<path d="M234.484 190.408C235.821 191.183 237.726 193.042 238.866 194.194C253.73 209.213 262.248 230.749 262.15 251.845C255 248.979 246.703 244.075 241.276 238.745C228.513 226.21 213.977 216.121 195.104 218.278C180.621 219.933 170.993 229.043 162.117 240.184C154.798 249.7 148.213 261.08 145.427 272.852C144.833 275.362 144.602 277.865 143.816 280.35L143.501 280.295C141.439 277.642 140.49 271.29 140.438 267.885C140.158 249.293 149.81 228.178 162.263 214.753C173.282 202.872 184.099 200.934 199.141 200.924C206.372 200.92 229.373 195.811 234.484 190.408Z" fill="#101010"/>
<path d="M189.143 171.849C189.211 171.839 189.279 171.829 189.347 171.818C202.912 170.597 218.038 176.932 228.409 185.368C218.998 191.048 208.826 192.675 198.013 192.777C171.703 193.023 155.664 206.101 143.154 228.836C139.656 236.255 136.846 242.748 135.64 250.885C135.417 252.387 134.848 256.77 134.674 256.885C134.5 257 134.304 256.749 134.213 256.632C134.122 256.516 131.776 250.18 131.574 247.868C130.518 235.815 137.83 225.788 143.639 215.979C149.163 206.652 152.714 196.642 159.724 188.235C167.382 179.05 177.025 173.029 189.143 171.849Z" fill="#101010"/>
</svg>
